<svg width="64" height="64" fill="none" xmlns="http://www.w3.org/2000/svg"><path d="M58.385 47.003L48.5 37l-9.885 10.003c-.82.83-.82 2.175 0 3.005.82.83 2.15.83 2.97 0l4.815-4.873v12.74c0 1.174.94 2.125 2.1 2.125 1.16 0 2.1-.951 2.1-2.125v-12.74l4.815 4.873c.82.83 2.15.83 2.97 0 .82-.83.82-2.175 0-3.005zm-30.956-25.86a4.286 4.286 0 11-8.572 0 4.286 4.286 0 018.572 0z" fill="#DEE2E4"/><path fill-rule="evenodd" clip-rule="evenodd" d="M15.693 48.766a12.799 12.799 0 007.45 2.377h11.632c1.229 0 2.225.996 2.225 2.224 0 1.163-.897 2.076-2.06 2.076-2.34.001-5.854-.014-6.158-.014h-5.64C13.676 55.429 6 47.754 6 38.286V21.143C6 11.675 13.675 4 23.143 4h17.143c9.468 0 17.143 7.675 17.143 17.143v17.143c-.09 1.1-1.427 1.592-2.207.811L47.625 31.5l-.006.006-2.788-2.787a6.429 6.429 0 00-9.091 0L15.693 48.766zm7.45-40.48h17.143c7.1 0 12.857 5.756 12.857 12.857v9.827l-5.281-5.281c-4.184-4.185-10.968-4.185-15.152 0L12.663 45.735a12.798 12.798 0 01-2.377-7.45V21.144c0-7.1 5.756-12.857 12.857-12.857z" fill="#DEE2E4"/></svg>